<?xml version="1.0" standalone="no"?>
<!DOCTYPE svg PUBLIC "-//W3C//DTD SVG 20010904//EN"
 "http://www.w3.org/TR/2001/REC-SVG-20010904/DTD/svg10.dtd">
<svg version="1.0" xmlns="http://www.w3.org/2000/svg"
 width="256.000000pt" height="256.000000pt" viewBox="0 0 256.000000 256.000000"
 preserveAspectRatio="xMidYMid meet">

<g transform="translate(0.000000,256.000000) scale(0.100000,-0.100000)"
fill="#000000" stroke="none">
<path d="M1399 2373 c-13 -17 -13 -17 4 -4 17 13 18 12 12 -15 -5 -27 -5 -28
5 -5 13 31 -2 48 -21 24z"/>
<path d="M1344 2356 c-3 -13 -4 -33 -1 -43 3 -10 6 -3 7 17 2 33 3 33 10 10
l8 -25 1 27 c1 35 -17 46 -25 14z"/>
<path d="M1373 2293 c2 -10 8 -27 13 -38 7 -18 6 -18 -9 -7 -43 36 -52 -40 -9
-81 15 -15 32 -27 38 -27 5 0 15 -9 21 -19 7 -11 21 -21 32 -23 27 -4 171
-175 171 -203 0 -28 -67 -104 -126 -144 -50 -33 -68 -32 -59 2 5 19 5 20 -5 5
-18 -28 -29 -21 -28 17 1 36 14 44 37 23 11 -11 12 -9 3 8 -8 15 -8 39 -2 77
13 79 0 117 -54 155 -36 26 -44 38 -43 60 2 23 -2 27 -23 26 -13 -1 -32 8 -41
19 -20 25 -49 17 -49 -14 0 -21 -1 -21 -18 -6 -41 37 -68 6 -41 -45 9 -17 6
-24 -24 -49 -19 -15 -40 -43 -47 -61 -8 -18 -28 -49 -46 -69 -23 -27 -36 -56
-48 -107 -22 -98 -21 -121 11 -154 14 -15 25 -29 22 -30 -29 -18 -197 -98
-239 -114 -45 -17 -56 -26 -58 -47 -5 -40 26 -63 102 -76 50 -9 82 -9 132 0
81 14 97 4 70 -42 -13 -22 -16 -40 -11 -68 6 -37 5 -40 -40 -72 -55 -40 -80
-81 -66 -107 15 -28 38 -44 74 -51 40 -9 42 -33 2 -43 -16 -4 -61 -14 -100
-23 -70 -16 -105 -37 -105 -61 0 -7 12 -27 27 -44 l26 -31 -65 -67 c-36 -37
-75 -80 -86 -96 -26 -35 -28 -79 -4 -97 14 -11 15 -11 5 1 -29 32 -15 68 56
148 38 43 92 98 120 121 58 49 75 49 130 3 l34 -28 -79 -57 c-91 -65 -183
-145 -144 -126 14 7 45 12 70 11 25 -1 61 2 80 7 25 6 12 7 -45 4 l-80 -6 20
22 c11 13 40 38 66 56 42 32 48 33 81 23 51 -15 83 -4 141 52 29 28 58 50 67
50 35 0 140 -55 150 -80 9 -22 10 -21 5 10 -20 127 -26 227 -16 253 15 40 53
54 86 33 21 -14 25 -25 26 -69 4 -127 16 -289 17 -229 1 35 6 62 13 62 5 0 17
17 26 37 17 42 12 113 -11 149 -12 17 -13 29 -4 57 8 27 7 45 -5 82 -13 38
-15 56 -6 90 8 33 7 49 -5 80 -20 48 -20 121 0 182 21 61 63 125 159 238 85
101 107 149 84 192 -8 15 -71 86 -141 159 -71 72 -128 138 -128 147 0 14 -28
37 -62 50 -10 3 -18 2 -18 -3 0 -6 9 -10 20 -10 19 0 19 -1 2 -20 -17 -21 -17
-20 -25 15 -5 19 -14 35 -19 35 -6 0 -8 -8 -5 -17z m97 -78 c0 -23 -6 -47 -13
-53 -36 -30 -107 10 -107 60 0 33 2 33 35 12 30 -20 23 -39 -8 -22 -20 10 -21
10 -8 -6 8 -10 21 -14 30 -10 9 3 24 7 34 8 9 0 17 4 17 9 0 27 -2 30 -10 12
-7 -18 -8 -19 -15 -2 -9 21 11 48 31 40 9 -3 14 -20 14 -48z m125 -124 c59
-60 118 -125 132 -144 23 -32 24 -39 13 -72 -7 -20 -35 -64 -64 -97 -138 -162
-181 -233 -195 -320 -7 -50 -9 -51 -19 -28 -22 50 -11 -3 12 -63 32 -81 31
-76 23 -117 l-8 -35 -20 38 c-11 22 -23 36 -26 33 -3 -3 2 -17 12 -32 17 -26
17 -27 -1 -19 -51 22 -83 17 -156 -23 -99 -54 -129 -62 -237 -65 -90 -2 -91
-2 -69 16 68 52 99 80 129 119 l33 43 -46 -43 -45 -44 -7 27 c-7 28 28 100 44
90 4 -2 28 12 54 32 36 28 46 42 46 64 0 16 -5 29 -10 29 -7 0 -8 17 -4 48 5
39 3 51 -12 62 -11 10 -18 11 -21 4 -7 -20 -52 -2 -99 39 l-45 40 7 51 c12 93
63 127 75 51 4 -22 6 -41 4 -43 -8 -9 -45 21 -46 36 0 11 -2 13 -6 4 -6 -16
24 -52 43 -52 8 0 23 -20 35 -45 12 -25 31 -53 43 -63 12 -9 31 -30 44 -46 12
-16 22 -24 22 -19 0 5 -5 14 -11 20 -7 7 5 12 41 15 59 6 100 38 127 100 21
47 29 48 36 6 5 -34 3 -39 -51 -110 -28 -36 -25 -34 18 12 48 51 51 58 46 92
-5 30 -3 36 8 32 19 -7 50 10 108 58 54 45 88 95 88 130 0 27 -151 208 -174
208 -7 0 -19 7 -26 15 -10 12 -9 15 5 15 9 0 22 13 28 30 6 17 12 30 13 30 0
0 49 -49 109 -109z m-161 -106 c8 -22 6 -113 -3 -145 -6 -19 -9 -11 -15 40 -9
79 -26 121 -59 147 -15 11 -24 23 -20 26 8 9 89 -49 97 -68z m-344 -115 c0
-32 -4 -40 -18 -40 -10 0 -23 -5 -30 -12 -7 -7 -12 -8 -12 -3 0 10 49 95 55
95 3 0 5 -18 5 -40z m35 -30 c-3 -5 5 -11 17 -15 50 -14 77 -28 72 -36 -7 -12
-61 -11 -69 1 -3 6 -11 10 -17 10 -6 0 -3 -9 7 -20 18 -20 60 -26 81 -12 6 4
13 17 16 29 5 18 -1 24 -33 37 -21 9 -39 17 -39 18 0 2 43 3 95 3 80 0 93 -2
78 -13 -10 -7 -28 -15 -41 -19 -18 -4 -21 -10 -16 -27 8 -26 22 -36 51 -36 31
0 53 10 53 25 0 11 -5 11 -27 0 -18 -10 -32 -11 -45 -4 -26 14 -22 22 8 15 14
-4 23 -3 20 2 -3 5 6 14 19 20 16 7 23 17 19 27 -3 8 -2 15 4 15 11 0 22 -47
22 -94 0 -46 -47 -135 -84 -157 -17 -10 -48 -19 -70 -19 -79 0 -151 115 -139
223 3 26 10 44 14 41 5 -3 7 -9 4 -14z m-32 -254 c10 -8 21 -30 24 -50 5 -29
1 -42 -16 -60 -19 -20 -27 -22 -64 -15 -23 4 -55 8 -72 7 -23 0 -20 -2 15 -9
87 -17 88 -17 83 -43 -5 -23 -10 -25 -89 -31 -47 -4 -104 -4 -127 -1 -93 15
-116 67 -42 93 22 7 89 38 148 68 59 30 111 55 115 55 4 0 15 -7 25 -14z m56
-52 l5 -39 6 45 c5 36 8 41 15 26 5 -12 2 -38 -11 -75 -21 -64 -46 -97 -66
-86 -10 6 -11 5 -1 -5 11 -11 17 -10 38 10 14 13 25 32 25 42 0 10 7 18 15 18
29 0 15 -38 -25 -70 -46 -37 -74 -36 -78 1 -2 19 6 36 29 58 28 29 31 36 26
77 -3 31 -1 44 7 41 6 -2 13 -21 15 -43z m275 -325 c10 -53 7 -119 -6 -119 -7
0 -29 -12 -51 -27 -32 -22 -52 -27 -120 -31 -45 -2 -98 0 -117 5 -32 9 -35 12
-35 48 l0 39 61 16 c34 9 85 29 115 45 30 16 65 34 79 42 43 23 67 17 74 -18z
m43 -1 c31 -35 45 -67 45 -105 0 -48 -14 -60 -45 -37 -22 17 -26 28 -29 92 -2
39 0 72 3 72 3 0 15 -10 26 -22z m-385 -97 c-5 -34 -33 -70 -55 -71 -26 0 -73
26 -81 45 -3 9 3 24 15 36 16 16 31 19 72 17 49 -3 52 -5 49 -27z m19 -78 c37
-19 146 -24 213 -10 35 8 38 7 31 -10 -18 -45 -17 -91 4 -138 12 -27 18 -52
13 -57 -4 -4 -29 3 -54 17 -68 36 -96 33 -143 -16 -52 -53 -89 -72 -126 -64
-16 4 -29 10 -29 13 0 12 40 33 51 26 6 -3 4 8 -5 25 -24 45 -92 81 -152 80
-44 -1 -45 -2 -16 -8 l34 -6 -27 -25 -27 -25 -19 24 c-42 52 -14 80 101 101
98 18 110 25 110 60 0 35 -2 35 41 13z m429 -64 c13 -46 4 -103 -18 -121 -13
-11 -14 -10 -4 9 17 31 15 115 -3 139 -19 25 -19 40 0 24 8 -7 20 -30 25 -51z
m-21 -42 l-1 -52 -9 40 c-11 55 -11 77 1 70 6 -3 9 -30 9 -58z m-150 -22 c0
-26 -2 -27 -9 -10 -5 11 -9 34 -9 50 0 26 2 27 9 10 5 -11 9 -33 9 -50z"/>
<path d="M1272 1527 c-18 -27 -31 -52 -29 -54 3 -2 19 19 37 47 18 28 31 52
29 54 -2 2 -19 -19 -37 -47z"/>
<path d="M1392 720 c-1 -14 3 -43 7 -65 l9 -40 0 35 c0 19 -4 49 -8 65 -7 27
-8 28 -8 5z"/>
<path d="M1060 688 c-25 -17 -36 -28 -26 -24 13 4 27 -1 43 -15 28 -27 30 -43
3 -34 -11 3 -28 1 -37 -5 -16 -9 -15 -10 5 -5 29 8 53 -12 99 -82 18 -29 38
-53 43 -53 12 0 3 68 -17 125 -12 34 -60 125 -66 125 -1 0 -22 -14 -47 -32z"/>
<path d="M1482 655 c0 -16 2 -22 5 -12 2 9 2 23 0 30 -3 6 -5 -1 -5 -18z"/>
<path d="M1408 570 c-26 -141 -29 -176 -16 -214 15 -46 36 -61 71 -52 22 5 26
13 33 62 8 64 0 176 -15 202 -7 12 -9 4 -8 -33 2 -47 1 -50 -23 -50 -23 0 -25
4 -30 60 -5 54 -6 57 -12 25z"/>
<path d="M968 583 c7 -3 16 -2 19 1 4 3 -2 6 -13 5 -11 0 -14 -3 -6 -6z"/>
<path d="M928 573 c7 -3 16 -2 19 1 4 3 -2 6 -13 5 -11 0 -14 -3 -6 -6z"/>
<path d="M888 563 c7 -3 16 -2 19 1 4 3 -2 6 -13 5 -11 0 -14 -3 -6 -6z"/>
<path d="M738 553 c7 -3 16 -2 19 1 4 3 -2 6 -13 5 -11 0 -14 -3 -6 -6z"/>
<path d="M818 553 c12 -2 30 -2 40 0 9 3 -1 5 -23 4 -22 0 -30 -2 -17 -4z"/>
</g>
</svg>
