<?xml version="1.0" standalone="no"?>
<!DOCTYPE svg PUBLIC "-//W3C//DTD SVG 20010904//EN"
 "http://www.w3.org/TR/2001/REC-SVG-20010904/DTD/svg10.dtd">
<svg version="1.0" xmlns="http://www.w3.org/2000/svg"
 width="1001.000000pt" height="1001.000000pt" viewBox="0 0 1001.000000 1001.000000"
 preserveAspectRatio="xMidYMid meet">

<g transform="translate(0.000000,1001.000000) scale(0.100000,-0.100000)"
fill="#000000" stroke="none">
<path d="M5578 9055 c-44 -25 -68 -75 -79 -172 -5 -48 -7 -119 -3 -158 6 -68
14 -100 14 -57 0 13 10 27 28 36 25 13 27 20 30 77 4 85 20 177 38 211 31 60
35 78 16 78 -9 -1 -29 -7 -44 -15z"/>
<path d="M5353 9003 c-33 -51 -16 -213 37 -356 20 -54 37 -71 116 -120 19 -11
-1 64 -30 113 -41 70 -66 166 -72 270 -3 52 -7 101 -9 108 -7 20 -23 14 -42
-15z"/>
<path d="M5451 8784 c0 -11 3 -14 6 -6 3 7 2 16 -1 19 -3 4 -6 -2 -5 -13z"/>
<path d="M5600 8730 c0 -13 20 -13 40 0 12 8 9 10 -12 10 -16 0 -28 -4 -28
-10z"/>
<path d="M5595 8686 l-50 -12 0 -71 c0 -56 4 -75 19 -92 11 -12 22 -21 26 -21
4 0 11 28 14 63 9 71 25 94 73 103 24 5 33 11 31 23 -4 20 -47 23 -113 7z"/>
<path d="M5671 8617 c-27 -13 -38 -44 -44 -125 -4 -61 7 -72 67 -72 29 0 36 4
36 19 0 10 -10 25 -22 33 -20 13 -21 19 -13 43 13 36 35 45 35 14 0 -18 3 -20
12 -11 16 16 28 15 28 -2 0 -8 -7 -17 -16 -20 -13 -5 -14 -9 -4 -20 6 -8 10
-30 8 -48 -3 -32 -5 -33 -48 -36 -25 -2 -57 1 -70 6 -21 8 -31 4 -58 -19 -18
-16 -44 -29 -58 -29 -35 0 -91 28 -109 54 -32 45 -8 49 42 6 40 -35 70 -38
107 -9 36 29 33 44 -16 69 -24 12 -71 40 -105 62 -35 22 -69 38 -76 35 -18 -7
-27 -53 -27 -139 l0 -70 83 -80 c92 -89 105 -98 142 -98 18 0 24 4 18 12 -10
18 -21 108 -12 108 4 0 10 -18 14 -40 8 -47 46 -79 104 -87 54 -7 77 9 112 78
27 55 29 64 18 96 -7 22 -10 68 -7 117 8 124 3 144 -41 156 -47 13 -71 12
-100 -3z"/>
<path d="M5840 8399 c0 -12 5 -37 11 -54 10 -27 8 -40 -16 -94 -35 -78 -73
-111 -126 -111 -45 0 -48 -9 -19 -55 23 -38 36 -44 99 -51 42 -4 53 -12 121
-82 83 -85 149 -159 295 -332 53 -63 107 -126 119 -140 99 -114 156 -194 163
-227 28 -140 -33 -248 -264 -473 -201 -196 -360 -306 -457 -317 -38 -5 -48 -2
-69 19 -13 13 -26 31 -29 39 -15 41 -13 -11 5 -138 23 -160 21 -169 -42 -253
-20 -27 -131 -144 -246 -261 -228 -233 -230 -229 -7 16 231 255 288 339 271
399 -5 17 -16 69 -24 116 -24 134 -22 128 -48 123 -19 -4 -28 -17 -42 -61 -55
-180 -162 -339 -282 -423 -29 -20 -43 -39 -48 -61 -14 -65 -49 -131 -159 -297
l-112 -169 -12 80 c-7 43 -17 89 -21 101 -69 179 -132 266 -270 377 -80 64
-175 220 -222 368 l-23 72 -43 0 c-126 0 -223 109 -223 249 0 134 76 205 169
157 l28 -15 6 152 c3 84 9 161 13 172 11 31 -124 -104 -152 -153 -45 -76 -73
-167 -108 -354 -44 -234 -60 -350 -52 -393 5 -27 34 -57 160 -169 84 -75 173
-151 198 -170 42 -33 45 -33 56 -15 19 29 63 24 100 -12 l32 -31 0 41 c0 35 3
41 26 47 54 14 124 -78 124 -162 0 -38 6 -48 60 -102 33 -33 60 -66 60 -74 0
-7 -11 3 -24 22 -24 36 -77 80 -96 80 -5 0 -10 -8 -10 -17 0 -10 -11 -54 -25
-98 -29 -94 -30 -106 -10 -99 27 11 73 -16 84 -48 35 -99 -35 -236 -147 -289
-26 -13 -64 -42 -85 -65 -55 -63 -95 -84 -156 -84 -40 0 -53 -4 -57 -17 -12
-38 -36 -80 -73 -127 -58 -72 -68 -119 -47 -214 9 -42 17 -88 19 -102 2 -22
27 -1 204 175 111 110 198 196 194 190 -165 -219 -484 -548 -621 -638 -47 -31
-105 -77 -130 -102 l-45 -46 45 24 c69 38 141 51 239 43 47 -3 97 -8 111 -11
58 -12 278 -7 363 9 162 31 349 109 557 232 215 127 288 154 411 154 88 0 162
-22 225 -68 65 -47 67 -47 46 -6 -58 114 -192 410 -192 423 0 3 29 -48 63
-114 68 -130 206 -373 216 -379 3 -2 7 14 8 36 2 23 12 75 24 116 12 43 21
104 21 144 0 66 -4 78 -60 192 -101 202 -162 419 -178 621 -7 97 0 116 9 25 9
-85 34 -194 68 -294 39 -116 49 -126 50 -50 1 65 3 81 25 204 21 119 40 181
87 285 107 238 316 533 608 855 241 266 335 424 341 572 2 48 -2 60 -43 123
-80 123 -196 252 -556 617 -194 196 -353 360 -353 365 0 17 -42 54 -56 49 -7
-3 -16 3 -19 14 -3 10 -12 24 -20 30 -12 10 -15 8 -15 -11z"/>
<path d="M5120 8175 c0 -5 5 -17 10 -25 5 -8 10 -10 10 -5 0 6 -5 17 -10 25
-5 8 -10 11 -10 5z"/>
<path d="M4822 8093 c14 -16 37 -46 52 -68 l26 -40 0 38 c0 26 -4 37 -15 37
-8 0 -24 14 -37 30 -12 17 -29 30 -37 30 -11 0 -8 -8 11 -27z"/>
<path d="M5156 8063 c8 -47 8 -47 26 -26 13 16 12 20 -9 41 l-24 22 7 -37z"/>
<path d="M5295 7794 c-9 -14 -15 -27 -13 -28 2 -1 23 -14 48 -28 145 -83 246
-284 266 -528 4 -47 8 -92 10 -100 1 -8 3 -61 3 -116 l1 -102 25 2 c14 0 25 3
25 5 0 2 12 76 27 165 46 281 34 444 -40 521 -31 33 -313 235 -327 235 -4 0
-15 -12 -25 -26z"/>
<path d="M4698 7797 c-16 -6 -28 -14 -28 -19 0 -4 -8 -8 -18 -8 -10 0 -43 -23
-73 -51 l-54 -50 55 40 c30 22 82 53 115 70 58 29 59 40 3 18z"/>
<path d="M4416 7032 c-4 -7 -9 -47 -21 -182 -2 -25 -7 -72 -10 -105 -13 -119
64 -372 157 -522 147 -234 411 -313 642 -190 157 83 279 266 342 514 28 111
31 149 16 223 -7 30 -16 102 -21 158 -5 57 -11 105 -13 107 -2 2 -24 1 -49 -2
l-47 -5 25 -36 c13 -20 23 -45 21 -57 -4 -25 -108 -79 -205 -105 l-68 -19 110
-1 c104 -1 185 -7 194 -16 2 -2 -41 -1 -96 2 -87 6 -101 4 -106 -10 -8 -20
-33 -21 -44 -2 -9 16 -78 23 -106 11 -24 -10 -88 1 -99 17 -19 30 -3 51 50 69
60 20 178 76 234 111 l37 23 -322 0 c-177 0 -358 4 -402 8 l-80 7 60 -24 c33
-13 106 -46 163 -75 93 -47 102 -49 102 -31 0 12 5 18 10 15 14 -9 12 -55 -4
-86 -7 -15 -14 -46 -14 -69 -1 -54 -29 -85 -96 -105 -62 -19 -99 -19 -162 0
-92 27 -158 93 -140 141 5 13 13 10 51 -16 110 -76 225 -79 307 -9 l33 28 -42
1 c-24 0 -43 4 -43 9 0 5 10 7 23 4 12 -3 20 -4 17 -1 -3 3 -81 29 -174 57
-94 28 -172 54 -175 57 -3 2 -4 21 -3 40 4 49 -6 74 -28 74 -10 0 -21 -4 -24
-8z m309 -212 l50 -7 -41 -2 c-27 -1 -44 -6 -48 -16 -8 -22 -37 -18 -43 5 -5
17 -16 20 -102 23 l-96 3 115 1 c63 1 138 -2 165 -7z m391 -53 c11 -6 36 -22
55 -34 20 -14 49 -23 72 -23 36 0 157 41 184 62 20 16 43 1 43 -26 0 -72 -214
-141 -301 -96 -46 24 -109 96 -109 125 0 9 35 5 56 -8z m-166 -54 c0 -36 -23
-73 -44 -73 -6 0 0 7 13 16 20 14 23 23 18 60 -2 24 -1 41 4 38 5 -3 9 -21 9
-41z m-80 -82 l-25 -7 33 -33 c38 -38 41 -47 9 -26 -25 16 -50 59 -40 69 4 3
16 6 27 5 18 -1 17 -2 -4 -8z m145 -463 c7 -8 5 -9 -10 -3 -11 5 -32 9 -47 9
-14 1 -24 5 -21 10 7 10 64 -1 78 -16z m-102 5 c-7 -2 -19 -2 -25 0 -7 3 -2 5
12 5 14 0 19 -2 13 -5z"/>
<path d="M5710 6905 c0 -8 12 -26 26 -40 14 -14 24 -23 22 -18 -3 4 -11 23
-18 41 -15 33 -30 43 -30 17z"/>
<path d="M4197 6889 c-47 -27 -62 -151 -28 -224 34 -73 105 -125 172 -125 34
0 34 0 14 103 -10 52 -24 90 -41 113 -43 55 -96 56 -107 1 -4 -19 -4 -19 -6 4
-3 55 50 65 103 19 l34 -30 -5 42 c-7 62 -9 66 -45 88 -37 22 -64 25 -91 9z"/>
<path d="M5630 6860 c-22 -5 -25 -12 -28 -60 l-3 -55 24 23 c13 12 30 22 38
21 8 0 4 -4 -8 -9 -12 -5 -29 -20 -38 -34 -16 -25 -57 -187 -49 -195 2 -2 22
4 43 14 76 34 119 102 123 193 4 80 -35 118 -102 102z"/>
<path d="M6060 6709 c-25 -23 -36 -37 -25 -31 19 10 83 72 74 72 -2 0 -24 -19
-49 -41z"/>
<path d="M3990 6678 c0 -17 20 -47 20 -31 0 6 3 18 6 27 4 11 1 16 -10 16 -9
0 -16 -6 -16 -12z"/>
<path d="M5720 6530 c0 -9 39 -25 46 -18 2 3 -7 10 -21 16 -14 6 -25 7 -25 2z"/>
<path d="M4130 5981 c-141 -57 -340 -159 -610 -312 -54 -31 -146 -68 -255
-104 -93 -30 -178 -61 -187 -69 -29 -22 -38 -61 -28 -118 17 -89 36 -109 125
-141 231 -82 459 -101 720 -60 77 12 179 23 228 25 l87 2 0 45 c1 25 9 71 20
101 10 30 16 58 12 61 -4 4 -77 19 -162 34 -208 36 -181 32 -425 60 -11 1 -53
3 -94 4 -41 0 -71 4 -67 8 8 8 179 6 271 -2 191 -18 306 -32 421 -50 l91 -15
42 40 c23 22 59 49 81 60 31 16 39 26 44 57 11 66 10 125 -4 216 l-13 88 -78
54 c-43 30 -89 55 -101 55 -13 0 -66 -18 -118 -39z m-672 -468 c-16 -2 -40 -2
-55 0 -16 2 -3 4 27 4 30 0 43 -2 28 -4z"/>
<path d="M4604 5858 c1 -156 -10 -251 -27 -245 -9 3 -11 36 -8 114 3 120 -12
176 -57 217 -47 42 -63 -3 -41 -115 11 -59 13 -206 3 -233 -5 -13 1 -16 35
-16 44 0 81 -26 81 -57 0 -69 81 167 96 279 9 66 -2 113 -38 153 -16 19 -33
35 -37 35 -4 0 -7 -60 -7 -132z"/>
<path d="M5112 5968 c-83 -29 -184 -33 -269 -11 -40 11 -69 15 -65 9 4 -6 25
-38 46 -70 66 -101 101 -193 118 -309 4 -23 202 273 223 332 16 48 19 72 8 70
-5 -1 -32 -10 -61 -21z"/>
<path d="M3344 5659 c-3 -6 -18 -9 -32 -6 -32 6 -52 -1 -52 -19 0 -17 -5 -17
61 2 60 18 85 34 52 34 -12 0 -25 -5 -29 -11z"/>
<path d="M4429 5530 c-157 -81 -241 -292 -152 -381 66 -67 152 -53 227 37 23
27 57 54 85 66 83 35 133 100 146 191 10 65 -13 102 -57 93 -40 -8 -58 -23
-75 -64 -16 -39 -9 -72 16 -72 26 0 71 38 71 61 0 10 7 19 15 19 20 0 19 -8
-5 -48 -22 -36 -63 -56 -97 -47 -19 4 -25 -1 -37 -30 -11 -25 -21 -35 -37 -35
l-23 0 22 20 c26 25 42 79 42 147 0 42 -4 54 -19 63 -31 16 -62 11 -122 -20z
m58 -96 c23 -23 25 -31 20 -80 -6 -62 -29 -107 -69 -137 -32 -24 -77 -16 -85
14 -3 12 -11 18 -19 15 -24 -9 -15 9 20 43 34 33 57 30 31 -5 -29 -39 -11 -69
34 -57 25 6 71 95 71 138 0 74 -60 96 -135 50 -42 -26 -55 -30 -55 -17 0 4 19
20 42 35 56 36 109 37 145 1z"/>
<path d="M5435 4605 c-76 -20 -133 -48 -247 -116 -282 -171 -516 -259 -734
-275 l-94 -7 -9 -36 c-19 -71 -31 -156 -31 -212 0 -51 3 -60 30 -83 32 -27
118 -55 235 -78 228 -43 755 19 817 97 57 72 124 112 207 122 l52 6 -2 191
c-2 240 -15 376 -37 394 -21 16 -123 14 -187 -3z"/>
<path d="M5674 4549 c3 -30 9 -163 13 -295 l6 -242 41 -13 c23 -8 61 -34 86
-59 25 -25 60 -53 78 -63 33 -17 34 -17 47 0 28 38 50 137 49 218 -4 183 -127
399 -275 479 l-52 29 7 -54z"/>
<path d="M3957 4229 c-81 -19 -173 -90 -192 -149 -8 -24 8 -71 39 -113 44 -61
172 -120 291 -135 l59 -7 24 47 c16 32 38 57 67 75 36 23 44 34 45 58 0 17 9
69 19 118 l18 87 -21 5 c-43 8 -228 25 -269 24 -23 -1 -59 -5 -80 -10z"/>
<path d="M5559 3977 c-77 -29 -131 -82 -150 -147 -22 -75 -17 -360 8 -520 12
-74 29 -198 38 -275 9 -77 37 -239 61 -360 49 -241 60 -307 69 -405 3 -36 8
-85 10 -110 11 -112 16 -195 19 -322 4 -154 6 -160 75 -191 55 -24 124 -17
146 16 18 28 18 37 10 272 -7 197 1 304 42 545 30 179 23 770 -13 990 -2 14
-6 86 -10 160 -7 164 -17 224 -49 271 -45 69 -174 107 -256 76z"/>
<path d="M4235 3865 c-27 -35 -30 -45 -30 -121 0 -77 -2 -85 -28 -112 -36 -37
-72 -48 -247 -72 -199 -28 -497 -109 -573 -157 -48 -30 -69 -76 -58 -125 10
-44 75 -139 135 -197 l46 -45 102 100 c57 54 104 102 106 105 3 7 -75 16 -231
25 -59 4 -106 8 -104 10 1 2 32 6 67 11 94 11 276 7 345 -7 132 -27 312 -145
401 -264 54 -71 94 -170 94 -229 0 -26 -5 -20 -24 36 -12 37 -27 72 -32 77 -7
7 -47 -14 -113 -57 l-104 -67 39 -16 c62 -26 131 -41 198 -41 117 -1 215 56
341 198 177 199 276 252 409 218 57 -15 75 -24 221 -111 88 -52 106 -59 174
-68 75 -10 79 19 17 142 -63 126 -97 227 -103 307 -9 112 23 272 67 335 21 31
31 70 18 70 -5 0 -44 -9 -86 -19 -171 -44 -262 -55 -457 -55 -147 -1 -209 3
-274 17 -170 37 -242 71 -277 132 -9 17 -13 15 -39 -20z"/>
<path d="M5887 3783 c4 -34 16 -60 39 -87 114 -134 133 -393 42 -568 -41 -77
-32 -95 20 -39 47 50 68 104 80 211 24 205 -26 390 -132 488 -25 23 -48 42
-51 42 -2 0 -2 -21 2 -47z"/>
<path d="M5890 3670 c0 -14 9 -120 20 -235 11 -116 20 -229 20 -252 0 -24 4
-43 9 -43 4 0 19 33 32 73 48 150 21 355 -61 457 l-20 25 0 -25z"/>
<path d="M4110 3660 c-13 -11 -18 -20 -13 -20 15 0 61 39 47 40 -6 0 -21 -9
-34 -20z"/>
<path d="M5343 3650 c-16 -45 -33 -160 -33 -226 0 -53 30 -151 74 -244 l26
-55 -5 50 c-3 28 -13 100 -21 160 -9 61 -19 164 -22 230 -7 111 -8 117 -19 85z"/>
<path d="M4058 3633 c7 -3 16 -2 19 1 4 3 -2 6 -13 5 -11 0 -14 -3 -6 -6z"/>
<path d="M3326 2838 c-215 -216 -415 -424 -444 -463 -62 -83 -92 -157 -92
-226 0 -218 261 -271 783 -158 178 39 420 108 555 160 119 46 120 46 179 28
23 -7 46 -10 50 -5 25 25 -142 235 -176 220 -205 -88 -518 -134 -721 -106
l-74 11 -51 -39 c-27 -22 -77 -61 -110 -87 -67 -53 175 184 295 289 104 90
304 239 492 365 87 58 158 110 158 115 0 5 -26 37 -57 70 -98 102 -291 217
-366 218 -24 0 -89 -61 -421 -392z"/>
<path d="M5431 2873 c-1 -23 4 -45 9 -48 12 -7 12 29 0 65 -7 21 -8 19 -9 -17z"/>
<path d="M3175 2750 c-3 -5 -1 -10 4 -10 6 0 11 5 11 10 0 6 -2 10 -4 10 -3 0
-8 -4 -11 -10z"/>
<path d="M3100 2675 c-19 -19 -32 -36 -29 -39 3 -3 23 12 44 34 47 49 34 53
-15 5z"/>
<path d="M5491 2594 c0 -11 3 -14 6 -6 3 7 2 16 -1 19 -3 4 -6 -2 -5 -13z"/>
<path d="M4395 2590 c-3 -6 1 -7 9 -4 18 7 21 14 7 14 -6 0 -13 -4 -16 -10z"/>
<path d="M4421 2571 c-12 -8 -8 -17 20 -53 144 -180 263 -483 304 -772 8 -60
17 -111 19 -114 3 -2 12 8 22 23 13 21 16 40 11 98 -11 143 -104 448 -192 632
-78 162 -133 218 -184 186z"/>
<path d="M5503 2535 c3 -16 13 -82 23 -145 10 -63 20 -108 22 -99 4 20 -36
261 -45 268 -3 3 -3 -7 0 -24z"/>
<path d="M3815 2335 l-60 -14 53 6 c29 3 65 9 80 13 44 13 -5 10 -73 -5z"/>
<path d="M3628 2313 c17 -2 47 -2 65 0 17 2 3 4 -33 4 -36 0 -50 -2 -32 -4z"/>
<path d="M5552 2225 c0 -16 2 -22 5 -12 2 9 2 23 0 30 -3 6 -5 -1 -5 -18z"/>
<path d="M5561 2110 c-1 -8 -4 -55 -6 -105 -3 -83 -2 -86 6 -35 5 30 8 78 6
105 -2 28 -4 43 -6 35z"/>
<path d="M5542 1885 c0 -16 2 -22 5 -12 2 9 2 23 0 30 -3 6 -5 -1 -5 -18z"/>
<path d="M5924 1735 c3 -22 6 -67 6 -99 0 -33 2 -57 5 -54 12 12 7 170 -5 181
-10 10 -11 4 -6 -28z"/>
<path d="M5930 1365 c0 -82 3 -146 6 -142 8 8 8 276 0 284 -3 4 -6 -60 -6
-142z"/>
<path d="M5506 1148 c8 -107 28 -185 54 -213 41 -43 266 -62 291 -24 15 23 37
110 43 169 5 53 4 52 -18 -28 -31 -112 -37 -117 -139 -116 -115 1 -158 24
-186 98 -11 30 -27 85 -35 123 l-16 68 6 -77z"/>
</g>
</svg>
