<?xml version="1.0" standalone="no"?>
<!DOCTYPE svg PUBLIC "-//W3C//DTD SVG 20010904//EN"
 "http://www.w3.org/TR/2001/REC-SVG-20010904/DTD/svg10.dtd">
<svg version="1.0" xmlns="http://www.w3.org/2000/svg"
 width="1001.000000pt" height="1001.000000pt" viewBox="0 0 1001.000000 1001.000000"
 preserveAspectRatio="xMidYMid meet">

<g transform="translate(0.000000,1001.000000) scale(0.100000,-0.100000)"
fill="#000000" stroke="none">
<path d="M5494 9311 c-59 -36 -88 -104 -98 -235 -3 -38 -8 -71 -10 -73 -8 -9
-23 78 -25 149 -1 42 -6 89 -10 105 -10 39 -48 43 -81 8 -24 -25 -25 -33 -24
-143 0 -102 4 -128 30 -204 28 -83 29 -88 11 -94 -26 -8 -38 -47 -44 -151 l-6
-91 94 -92 c99 -97 120 -110 174 -110 26 0 35 -5 40 -21 12 -37 57 -106 79
-119 12 -8 45 -17 75 -21 63 -9 41 13 362 -361 332 -385 337 -393 304 -494
-30 -88 -66 -137 -204 -274 -205 -204 -359 -321 -453 -344 -37 -8 -54 0 -68
35 -11 27 -10 35 15 82 22 40 30 68 33 128 4 74 3 79 -23 105 l-28 28 28 176
c43 273 28 461 -43 546 -15 18 -157 121 -272 197 -82 55 -79 50 -57 115 32 96
8 172 -55 172 -35 0 -83 -23 -119 -57 l-26 -24 -7 43 c-16 96 -72 168 -132
168 -55 0 -108 -80 -120 -179 l-7 -62 -32 48 c-64 95 -127 134 -176 109 -49
-24 -60 -84 -33 -177 15 -52 67 -148 86 -160 5 -3 -6 -12 -24 -19 -66 -26
-165 -100 -211 -158 -50 -62 -110 -175 -133 -252 -10 -35 -34 -65 -109 -139
-103 -102 -142 -162 -179 -273 -50 -152 -124 -580 -110 -643 12 -55 31 -80
128 -164 53 -45 96 -87 96 -91 0 -5 -32 -21 -72 -36 -80 -31 -469 -226 -598
-301 -116 -67 -140 -77 -250 -108 -139 -39 -254 -97 -270 -135 -19 -46 -9
-147 21 -205 32 -62 68 -81 230 -124 223 -59 390 -74 536 -46 104 20 217 34
332 41 l93 7 24 -29 c13 -16 23 -39 24 -50 0 -12 -23 -52 -51 -90 -28 -38 -57
-85 -65 -104 -17 -40 -19 -140 -4 -190 5 -19 10 -56 10 -81 0 -54 -35 -109
-97 -155 -21 -16 -40 -32 -43 -35 -3 -3 -39 -28 -80 -56 -164 -110 -248 -240
-221 -341 35 -127 160 -212 364 -246 l72 -12 3 -46 c3 -39 -1 -49 -23 -66 -28
-22 -58 -29 -255 -61 -134 -21 -428 -97 -495 -128 -63 -28 -101 -60 -119 -97
-40 -84 -6 -179 107 -301 l70 -76 -168 -167 c-286 -284 -431 -446 -472 -530
-93 -187 -31 -334 161 -381 202 -50 698 34 1158 196 l128 45 29 -21 c65 -47
198 -201 242 -281 103 -190 157 -250 225 -250 62 0 84 68 64 193 -16 97 -61
262 -100 372 -17 50 -34 98 -37 108 -3 9 -10 17 -15 17 -5 0 -7 4 -4 9 8 13
-87 194 -129 246 -27 33 -45 45 -64 45 -47 0 -195 -86 -257 -149 -82 -84 -488
-161 -717 -137 -52 6 -65 11 -60 21 15 26 159 148 308 259 218 164 185 152
291 114 78 -29 102 -33 189 -33 95 0 104 2 177 37 80 38 100 56 278 244 99
105 156 138 235 139 71 0 117 -20 285 -125 62 -39 131 -60 194 -60 l53 0 38
-192 c93 -468 107 -607 80 -806 -18 -128 -58 -374 -76 -467 -18 -89 14 -433
45 -493 20 -38 31 -46 95 -67 65 -21 196 -17 233 7 14 9 30 35 37 59 57 191
54 850 -6 989 -25 60 -19 192 24 485 16 111 26 239 30 367 l6 197 40 28 c94
65 137 186 138 392 1 155 -41 291 -115 377 l-33 38 31 66 c26 56 31 79 34 164
5 113 -7 179 -50 281 -43 104 -46 169 -13 299 41 162 35 228 -36 377 l-54 114
1 115 c3 390 154 711 562 1196 55 65 108 128 118 139 273 295 368 450 381 620
7 87 -11 126 -115 260 -106 138 -159 195 -507 545 -177 179 -330 340 -340 357
-11 18 -33 39 -50 47 -17 8 -37 27 -45 41 -8 15 -22 31 -32 36 -14 8 -18 22
-18 69 0 68 -21 100 -65 100 -19 0 -30 10 -46 41 l-21 42 -53 -6 c-63 -6 -66
-3 -59 80 7 81 23 150 50 207 17 36 20 54 13 68 -13 24 -55 23 -95 -1z m66
-36 c-5 -14 -16 -38 -24 -53 -18 -34 -34 -126 -38 -211 -3 -57 -5 -64 -30 -77
-18 -9 -28 -23 -28 -36 0 -43 -8 -11 -14 57 -10 98 8 238 35 281 22 35 61 63
91 64 15 0 16 -4 8 -25z m-235 -27 c2 -7 6 -56 9 -108 6 -104 31 -200 72 -270
29 -49 49 -124 30 -113 -79 49 -96 66 -116 120 -53 143 -70 305 -37 356 19 29
35 35 42 15z m313 -339 c2 -12 -7 -18 -31 -23 -48 -9 -64 -32 -73 -103 -3 -35
-10 -63 -14 -63 -4 0 -15 9 -26 21 -15 17 -19 36 -19 92 l0 71 50 12 c66 16
109 13 113 -7z m63 -59 c44 -12 49 -32 41 -156 -3 -49 0 -95 7 -117 11 -32 9
-41 -18 -96 -35 -69 -58 -85 -112 -78 -58 8 -96 40 -104 87 -4 22 -10 40 -14
40 -9 0 2 -90 12 -108 6 -8 0 -12 -18 -12 -37 0 -50 9 -142 98 l-83 80 0 70
c0 86 9 132 27 139 7 3 41 -13 76 -35 34 -22 81 -50 105 -62 49 -25 52 -40 16
-69 -37 -29 -67 -26 -107 9 -50 43 -74 39 -42 -6 18 -26 74 -54 109 -54 14 0
40 13 58 29 27 23 37 27 58 19 13 -5 45 -8 70 -6 43 3 45 4 48 36 2 18 -2 40
-8 48 -10 11 -9 15 4 20 9 3 16 12 16 20 0 17 -12 18 -28 2 -9 -9 -12 -7 -12
11 0 31 -22 22 -35 -14 -8 -24 -7 -30 13 -43 12 -8 22 -23 22 -33 0 -15 -7
-19 -36 -19 -60 0 -71 11 -67 72 6 81 17 112 44 125 29 15 53 16 100 3z m104
-240 c3 -11 12 -17 19 -14 14 5 56 -32 56 -49 0 -5 159 -169 353 -365 360
-365 476 -494 556 -617 41 -63 45 -75 43 -123 -6 -148 -100 -306 -341 -572
-292 -322 -501 -617 -608 -855 -47 -104 -66 -166 -87 -285 -22 -123 -24 -139
-25 -204 -1 -76 -11 -66 -50 50 -34 100 -59 209 -68 294 -9 91 -16 72 -9 -25
16 -202 77 -419 178 -621 56 -114 60 -126 60 -192 0 -40 -9 -101 -21 -144 -12
-41 -22 -93 -24 -116 -1 -22 -5 -38 -8 -36 -10 6 -148 249 -216 379 -34 66
-63 117 -63 114 0 -13 134 -309 192 -423 21 -41 19 -41 -46 6 -63 46 -137 68
-225 68 -123 0 -196 -27 -411 -154 -208 -123 -395 -201 -557 -232 -85 -16
-305 -21 -363 -9 -14 3 -64 8 -111 11 -98 8 -170 -5 -239 -43 l-45 -24 45 46
c25 25 83 71 130 102 137 90 456 419 621 638 4 6 -83 -80 -194 -190 -177 -176
-202 -197 -204 -175 -2 14 -10 60 -19 102 -21 95 -11 142 47 214 37 47 61 89
73 127 4 13 17 17 57 17 61 0 101 21 156 84 21 23 59 52 85 65 87 41 158 148
158 236 0 63 -52 118 -95 101 -20 -7 -19 5 10 99 14 44 25 88 25 98 0 9 5 17
10 17 19 0 72 -44 96 -80 13 -19 24 -29 24 -22 0 8 -27 41 -60 74 -54 54 -60
64 -60 102 0 84 -70 176 -124 162 -23 -6 -26 -12 -26 -47 l0 -41 -32 31 c-37
36 -81 41 -100 12 -11 -18 -14 -18 -56 15 -25 19 -114 95 -198 170 -126 112
-155 142 -160 169 -8 43 8 159 52 393 35 187 63 278 108 354 28 49 163 184
152 153 -4 -11 -10 -88 -13 -172 l-6 -152 -28 15 c-93 48 -169 -23 -169 -157
0 -140 97 -249 223 -249 l43 0 23 -72 c47 -148 142 -304 222 -368 91 -73 130
-114 177 -188 42 -68 60 -103 93 -189 4 -12 14 -58 21 -101 l12 -80 112 169
c110 166 145 232 159 297 5 22 19 41 48 61 120 84 227 243 282 423 14 44 23
57 42 61 26 5 24 11 48 -123 8 -47 19 -99 24 -116 17 -60 -40 -144 -271 -399
-223 -245 -221 -249 7 -16 115 117 226 234 246 261 63 84 65 93 42 253 -18
127 -20 179 -5 138 3 -8 16 -26 29 -39 21 -21 31 -24 69 -19 97 11 256 121
457 317 231 225 292 333 264 473 -7 33 -64 113 -163 227 -12 14 -66 77 -119
140 -146 173 -212 247 -295 332 -68 70 -79 78 -121 82 -63 7 -76 13 -99 51
-29 46 -26 55 19 55 53 0 91 33 126 111 24 54 26 67 16 94 -6 17 -11 42 -11
54 0 19 3 21 15 11 8 -6 17 -20 20 -30z m-404 -661 c79 -55 158 -115 176 -134
74 -77 86 -240 40 -521 -15 -89 -27 -163 -27 -165 0 -2 -11 -5 -25 -5 l-25 -2
-1 102 c0 55 -2 108 -3 116 -2 8 -6 53 -10 100 -20 244 -121 445 -266 528 -25
14 -46 27 -48 28 -6 4 30 54 38 54 4 0 72 -45 151 -101z m-1006 -698 c3 -11 5
-35 3 -55 -1 -19 0 -38 3 -40 3 -3 81 -29 175 -57 93 -28 171 -54 174 -57 3
-3 -5 -2 -17 1 -13 3 -23 1 -23 -4 0 -5 19 -9 43 -9 l42 -1 -33 -28 c-82 -70
-197 -67 -307 9 -38 26 -46 29 -51 16 -18 -48 48 -114 140 -141 63 -19 100
-19 162 0 67 20 95 51 96 105 0 23 7 54 14 69 16 31 18 77 4 86 -5 3 -10 -3
-10 -15 0 -18 -9 -16 -102 31 -57 29 -130 62 -163 75 l-60 24 80 -7 c44 -4
225 -8 402 -8 l322 0 -37 -23 c-56 -35 -174 -91 -234 -111 -53 -18 -69 -39
-50 -69 11 -16 75 -27 99 -17 28 12 97 5 106 -11 11 -19 36 -18 44 2 5 14 19
16 106 10 55 -3 98 -4 96 -2 -9 9 -90 15 -194 16 l-110 1 68 19 c97 26 201 80
205 105 2 12 -8 37 -21 57 l-25 36 47 5 c25 3 47 4 49 2 2 -2 8 -50 13 -107 5
-56 14 -128 21 -158 15 -74 12 -112 -16 -223 -47 -185 -121 -325 -225 -427
-154 -150 -369 -187 -552 -94 -66 33 -161 124 -207 197 -93 150 -170 403 -157
522 3 33 8 80 10 105 12 135 17 175 21 182 10 15 43 8 49 -11z m-177 -141 c36
-22 38 -26 45 -88 l5 -42 -34 30 c-53 46 -106 36 -103 -19 2 -23 2 -23 6 -4
11 55 64 54 107 -1 17 -23 31 -61 41 -113 20 -103 20 -103 -14 -103 -100 0
-190 103 -191 218 0 119 58 171 138 122z m1430 -48 c33 -50 10 -167 -44 -223
-25 -26 -100 -66 -108 -58 -8 8 33 170 49 195 9 14 26 29 38 34 12 5 16 9 8 9
-8 1 -25 -9 -38 -21 l-24 -23 3 55 c3 48 6 55 28 60 39 9 70 0 88 -28z m-1369
-867 l78 -54 13 -88 c14 -91 15 -150 4 -216 -5 -31 -13 -41 -44 -57 -22 -11
-58 -38 -81 -60 l-42 -40 -91 15 c-115 18 -230 32 -421 50 -92 8 -263 10 -271
2 -4 -4 26 -8 67 -8 41 -1 83 -3 94 -4 244 -28 217 -24 425 -60 85 -15 158
-30 162 -34 4 -3 -2 -31 -12 -61 -11 -30 -19 -76 -20 -101 l0 -45 -87 -2 c-49
-2 -151 -13 -228 -25 -261 -41 -489 -22 -720 60 -89 32 -108 52 -125 141 -10
57 -1 96 28 118 9 8 94 39 187 69 109 36 201 73 255 104 358 203 663 350 728
351 12 0 58 -25 101 -55z m299 -10 c36 -40 47 -87 38 -153 -15 -112 -96 -348
-96 -279 0 31 -37 57 -81 57 -34 0 -40 3 -35 16 10 27 8 174 -3 233 -22 112
-6 157 41 115 45 -41 60 -97 57 -217 -3 -78 -1 -111 8 -114 17 -6 28 89 27
245 0 72 3 132 7 132 4 0 21 -16 37 -35z m532 21 c0 -38 -40 -115 -133 -254
-62 -93 -103 -146 -105 -135 -17 116 -52 208 -118 309 -21 32 -42 64 -46 70
-4 6 25 2 65 -9 85 -22 186 -18 269 11 68 25 68 25 68 8z m-629 -426 c37 -20
20 -169 -23 -210 l-22 -20 23 0 c16 0 26 10 37 35 12 29 18 34 37 30 34 -9 75
11 97 47 24 40 25 48 5 48 -8 0 -15 -9 -15 -19 0 -23 -45 -61 -71 -61 -25 0
-32 33 -16 72 17 41 35 56 75 64 86 17 76 -152 -15 -238 -15 -15 -49 -36 -74
-46 -28 -12 -62 -39 -85 -66 -75 -90 -161 -104 -227 -37 -89 89 -5 300 152
381 60 31 91 36 122 20z m1071 -942 c22 -18 35 -154 37 -394 l2 -191 -52 -6
c-83 -10 -150 -50 -207 -122 -25 -31 -128 -62 -309 -91 -272 -45 -647 -9 -743
72 -27 23 -30 32 -30 83 0 56 12 141 31 212 l9 36 94 7 c218 16 452 104 734
275 114 68 171 96 247 116 64 17 166 19 187 3z m206 -123 c139 -148 199 -364
149 -530 -10 -33 -25 -68 -32 -78 -13 -17 -14 -17 -47 0 -18 10 -53 38 -78 63
-25 25 -63 51 -86 59 l-41 13 -6 242 c-4 132 -10 265 -13 295 l-7 54 52 -29
c29 -15 78 -55 109 -89z m-1646 -256 c57 -6 113 -12 124 -14 l21 -5 -18 -87
c-10 -49 -19 -101 -19 -118 -1 -24 -9 -35 -45 -58 -29 -18 -51 -43 -67 -75
l-24 -47 -59 7 c-161 21 -283 94 -324 195 -16 40 -8 65 37 115 80 88 167 109
374 87z m1562 -268 c89 -44 111 -103 120 -331 4 -74 8 -146 10 -160 36 -220
43 -811 13 -990 -41 -241 -49 -348 -42 -545 8 -235 8 -244 -10 -272 -22 -33
-91 -40 -146 -16 -69 31 -71 37 -75 191 -3 127 -8 210 -19 322 -2 25 -7 74
-10 110 -9 98 -20 164 -69 405 -24 121 -52 283 -61 360 -9 77 -26 201 -38 275
-25 160 -30 445 -8 520 38 132 201 195 335 131z m-1430 -122 c32 -30 111 -59
237 -86 65 -14 127 -18 274 -17 195 0 286 11 457 55 42 10 81 19 86 19 13 0 3
-39 -18 -70 -44 -63 -76 -223 -67 -335 6 -80 40 -181 103 -307 62 -123 58
-152 -17 -142 -68 9 -86 16 -174 68 -146 87 -164 96 -221 111 -133 34 -232
-19 -409 -218 -126 -142 -224 -199 -341 -198 -67 0 -136 15 -198 41 l-39 16
104 67 c66 43 106 64 113 57 5 -5 20 -40 32 -77 19 -56 24 -62 24 -36 0 59
-40 158 -94 229 -89 119 -269 237 -401 264 -69 14 -251 18 -345 7 -35 -5 -66
-9 -67 -11 -2 -2 45 -6 104 -10 156 -9 234 -18 231 -25 -2 -3 -49 -51 -106
-105 l-102 -100 -46 45 c-60 58 -125 153 -135 197 -11 49 10 95 58 125 76 48
374 129 573 157 175 24 211 35 247 72 26 27 28 35 28 112 0 76 3 86 30 121 26
35 30 37 39 20 6 -10 24 -31 40 -46z m1622 -51 c106 -98 156 -283 132 -488
-12 -107 -33 -161 -80 -211 -52 -56 -61 -38 -20 39 91 175 72 434 -42 568 -23
27 -35 53 -39 87 -4 26 -4 47 -2 47 3 0 26 -19 51 -42z m13 -183 c52 -110 61
-271 22 -392 -13 -40 -28 -73 -32 -73 -5 0 -9 19 -9 43 0 23 -9 136 -20 252
-11 115 -20 221 -20 235 l0 25 20 -25 c11 -14 29 -43 39 -65z m-565 -270 c8
-60 18 -132 21 -160 l5 -50 -26 55 c-44 93 -74 191 -74 244 0 66 17 181 33
226 11 32 12 26 19 -85 3 -66 13 -169 22 -230z m-1552 -129 c83 -34 215 -125
281 -194 31 -33 57 -65 57 -70 0 -5 -71 -57 -158 -115 -188 -126 -388 -275
-492 -365 -120 -105 -362 -342 -295 -289 33 26 83 65 110 87 l51 39 74 -11
c203 -28 516 18 721 106 34 15 201 -195 176 -220 -4 -5 -27 -2 -50 5 -59 18
-60 18 -179 -28 -135 -52 -377 -121 -555 -160 -522 -113 -783 -60 -783 158 0
69 30 143 92 226 29 39 229 247 444 463 437 435 403 411 506 368z m683 -668
c101 -117 266 -575 282 -785 5 -58 2 -77 -11 -98 -10 -15 -19 -25 -22 -23 -2
3 -11 54 -19 114 -41 289 -160 592 -304 772 -28 36 -32 45 -20 53 30 19 58 9
94 -33z m1036 -1504 c28 -74 71 -97 186 -98 102 -1 108 4 139 116 22 80 23 81
18 28 -6 -59 -28 -146 -43 -169 -25 -38 -250 -19 -291 24 -26 28 -46 106 -54
213 l-6 77 16 -68 c8 -38 24 -93 35 -123z"/>
<path d="M4471 7053 c86 -3 97 -6 102 -23 6 -23 35 -27 43 -5 4 10 21 15 48
16 l41 2 -50 7 c-27 5 -102 8 -165 7 l-115 -1 96 -3z"/>
<path d="M4990 7005 c0 -29 63 -101 109 -125 87 -45 301 24 301 96 0 27 -23
42 -43 26 -27 -21 -148 -62 -184 -62 -23 0 -52 9 -72 23 -60 39 -76 47 -93 47
-10 0 -18 -2 -18 -5z"/>
<path d="M4867 6946 c5 -37 2 -46 -18 -60 -13 -9 -19 -16 -13 -16 33 0 62 97
35 114 -5 3 -6 -14 -4 -38z"/>
<path d="M4777 6864 c-10 -10 15 -53 40 -69 32 -21 29 -12 -9 26 l-33 33 25 7
c21 6 22 7 4 8 -11 1 -23 -2 -27 -5z"/>
<path d="M4867 6414 c-3 -5 7 -9 21 -10 15 0 36 -4 47 -9 15 -6 17 -5 10 3
-14 15 -71 26 -78 16z"/>
<path d="M4818 6403 c6 -2 18 -2 25 0 6 3 1 5 -13 5 -14 0 -19 -2 -12 -5z"/>
<path d="M3333 5743 c15 -2 39 -2 55 0 15 2 2 4 -28 4 -30 0 -43 -2 -27 -4z"/>
<path d="M4272 5663 c-23 -15 -42 -31 -42 -35 0 -13 13 -9 55 17 75 46 135 24
135 -50 0 -43 -46 -132 -71 -138 -45 -12 -63 18 -34 57 26 35 3 38 -31 5 -35
-34 -44 -52 -20 -43 8 3 16 -3 19 -15 8 -30 53 -38 85 -14 40 30 63 75 69 137
5 49 3 57 -20 80 -36 36 -89 35 -145 -1z"/>
</g>
</svg>
